<?xml version="1.0" encoding="utf-8"?>
<!-- Generator: Adobe Illustrator 23.0.4, SVG Export Plug-In . SVG Version: 6.00 Build 0)  -->
<svg version="1.1" id="Layer_1" xmlns="http://www.w3.org/2000/svg" xmlns:xlink="http://www.w3.org/1999/xlink" x="0px" y="0px"
	 viewBox="0 0 30.7 30.7" style="enable-background:new 0 0 30.7 30.7;" xml:space="preserve">
<style type="text/css">
	.st0{fill:#FFFFFF;}
</style>
<title>Facebook icon</title>
<g>
	
		<image style="overflow:visible;opacity:0.25;" width="43" height="43" xlink:href="6A9879C4F4E68335.png"  transform="matrix(1 0 0 1 -5.27 -5.27)">
	</image>
	<g>
		<path class="st0" d="M27.4,15.4c0-6.6-5.4-12-12-12s-12,5.4-12,12c0,6,4.4,10.9,10.1,11.8v-8.4h-3v-3.5h3.1v-2.6
			c0-3,1.8-4.7,4.5-4.7c1.3,0,2.7,0.2,2.7,0.2v3h-1.5c-1.5,0-2,0.9-2,1.9v2.3h3.3L20,18.9h-2.8v8.4C23,26.4,27.4,21.4,27.4,15.4z"/>
	</g>
</g>
</svg>
