<?xml version="1.0" encoding="utf-8"?>
<!-- Generator: Adobe Illustrator 23.0.4, SVG Export Plug-In . SVG Version: 6.00 Build 0)  -->
<svg version="1.1" id="Layer_1" xmlns="http://www.w3.org/2000/svg" xmlns:xlink="http://www.w3.org/1999/xlink" x="0px" y="0px"
	 viewBox="0 0 33.5 33.5" style="enable-background:new 0 0 33.5 33.5;" xml:space="preserve">
<style type="text/css">
	.st0{fill:#FFFFFF;}
</style>
<title>Instagram icon</title>
<g>
	
		<image style="overflow:visible;opacity:0.25;" width="42" height="42" xlink:href="9E553252E7A91DF1.png"  transform="matrix(1 0 0 1 -3.2552 -3.2552)">
	</image>
	<g>
		<path class="st0" d="M16.7,4.7c-3.3,0-3.7,0-4.9,0.1c-1.3,0.1-2.1,0.3-2.9,0.6C8.1,5.7,7.4,6.1,6.8,6.8S5.7,8.1,5.4,8.9
			c-0.3,0.8-0.5,1.6-0.6,2.9c-0.1,1.3-0.1,1.7-0.1,4.9s0,3.7,0.1,5c0.1,1.3,0.3,2.1,0.6,2.9c0.3,0.8,0.7,1.5,1.4,2.1
			c0.7,0.7,1.3,1.1,2.1,1.4c0.8,0.3,1.6,0.5,2.9,0.6c1.3,0.1,1.7,0.1,4.9,0.1s3.7,0,5-0.1s2.1-0.3,2.9-0.6c0.8-0.3,1.5-0.7,2.1-1.4
			c0.7-0.7,1.1-1.3,1.4-2.1c0.3-0.8,0.5-1.6,0.6-2.9c0.1-1.3,0.1-1.7,0.1-5s0-3.7-0.1-4.9s-0.3-2.2-0.6-2.9
			c-0.3-0.8-0.7-1.5-1.4-2.1c-0.7-0.7-1.3-1.1-2.1-1.4c-0.8-0.3-1.6-0.5-2.9-0.6C20.4,4.8,20,4.7,16.7,4.7z M16.7,6.9
			c3.2,0,3.6,0,4.9,0.1c1.2,0.1,1.8,0.2,2.2,0.4c0.6,0.2,1,0.5,1.4,0.9s0.7,0.8,0.9,1.4c0.2,0.4,0.4,1.1,0.4,2.2
			c0.1,1.3,0.1,1.7,0.1,4.9s0,3.6-0.1,4.9c-0.1,1.2-0.3,1.8-0.4,2.2c-0.2,0.6-0.5,1-0.9,1.4s-0.8,0.7-1.4,0.9
			c-0.4,0.2-1.1,0.4-2.2,0.4c-1.3,0.1-1.6,0.1-4.9,0.1s-3.6,0-4.9-0.1c-1.2-0.1-1.8-0.3-2.2-0.4c-0.6-0.2-1-0.5-1.4-0.9
			s-0.7-0.8-0.9-1.4c-0.2-0.4-0.3-1.1-0.4-2.2c0-1.3-0.1-1.6-0.1-4.8c0-3.2,0-3.6,0.1-4.9c0.1-1.2,0.2-1.8,0.4-2.2
			c0.2-0.6,0.5-1,0.9-1.4c0.4-0.4,0.8-0.7,1.4-0.9c0.4-0.2,1-0.4,2.2-0.4C13.1,6.9,13.5,6.9,16.7,6.9C16.7,6.9,16.7,6.9,16.7,6.9z
			 M16.7,10.6c-3.4,0-6.2,2.8-6.2,6.2s2.8,6.2,6.2,6.2s6.2-2.8,6.2-6.2S20.1,10.6,16.7,10.6z M16.7,20.7c-2.2,0-4-1.8-4-4s1.8-4,4-4
			s4,1.8,4,4S19,20.7,16.7,20.7z M24.6,10.3c0,0.8-0.6,1.4-1.4,1.4c-0.8,0-1.4-0.7-1.4-1.4s0.6-1.4,1.4-1.4S24.6,9.5,24.6,10.3z"/>
	</g>
</g>
</svg>
