<?xml version="1.0" encoding="utf-8"?>
<!-- Generator: Adobe Illustrator 23.0.4, SVG Export Plug-In . SVG Version: 6.00 Build 0)  -->
<svg version="1.1" id="Layer_1" xmlns="http://www.w3.org/2000/svg" xmlns:xlink="http://www.w3.org/1999/xlink" x="0px" y="0px"
	 viewBox="0 0 24 24" style="enable-background:new 0 0 24 24;" xml:space="preserve">
<style type="text/css">
	.st0{fill:#FFFFFF;}
	.st1{fill:none;}
</style>
<path class="st0" d="M15.5,1h-8C6.12,1,5,2.12,5,3.5v17C5,21.88,6.12,23,7.5,23h8c1.38,0,2.5-1.12,2.5-2.5v-17
	C18,2.12,16.88,1,15.5,1z M11.5,22c-0.83,0-1.5-0.67-1.5-1.5s0.67-1.5,1.5-1.5s1.5,0.67,1.5,1.5S12.33,22,11.5,22z M16,18H7V4h9V18z
	"/>
<path class="st1" d="M0,0h24v24H0V0z"/>
</svg>
