<?xml version="1.0" encoding="utf-8"?>
<!-- Generator: Adobe Illustrator 23.0.4, SVG Export Plug-In . SVG Version: 6.00 Build 0)  -->
<svg version="1.1" id="Layer_1" xmlns="http://www.w3.org/2000/svg" xmlns:xlink="http://www.w3.org/1999/xlink" x="0px" y="0px"
	 viewBox="0 0 28.4 28.4" style="enable-background:new 0 0 28.4 28.4;" xml:space="preserve">
<style type="text/css">
	.st0{fill:#FFFFFF;}
</style>
<g>
	
		<image style="overflow:visible;opacity:0.25;" width="31" height="40" xlink:href="665397D90A9013CA.png"  transform="matrix(1 0 0 1 -0.8143 -4.8143)">
	</image>
	<g>
		<path class="st0" d="M17.7,3.2h-8c-1.4,0-2.5,1.1-2.5,2.5v17c0,1.4,1.1,2.5,2.5,2.5h8c1.4,0,2.5-1.1,2.5-2.5v-17
			C20.2,4.3,19.1,3.2,17.7,3.2z M13.7,24.2c-0.8,0-1.5-0.7-1.5-1.5s0.7-1.5,1.5-1.5s1.5,0.7,1.5,1.5S14.5,24.2,13.7,24.2z
			 M18.2,20.2h-9v-14h9V20.2z"/>
	</g>
</g>
<g>
</g>
</svg>
