<?xml version="1.0" encoding="utf-8"?>
<!-- Generator: Adobe Illustrator 23.0.4, SVG Export Plug-In . SVG Version: 6.00 Build 0)  -->
<svg version="1.1" id="Layer_1" xmlns="http://www.w3.org/2000/svg" xmlns:xlink="http://www.w3.org/1999/xlink" x="0px" y="0px"
	 viewBox="0 0 56 56" style="enable-background:new 0 0 56 56;" xml:space="preserve">
<style type="text/css">
	.st0{fill:#FFFFFF;}
	.st1{display:none;fill:none;stroke:#000000;stroke-miterlimit:10;}
</style>
<g>
	<path class="st0" d="M56.2,0c-0.8,0.8-1.6,1.6-2.4,2.5c-2.5,2.7-5.1,5.3-7.6,8c-3,3.2-6.1,6.4-9.1,9.7c-2,2.2-4.1,4.3-6.1,6.5
		c-0.1,0.1-0.1,0.3-0.1,0.4c0,5.1,0,10.1,0,15.2c0,0.1,0,0.2,0,0.3c2.8,0,5.6,0,8.4,0c0,1.7,0,3.4,0,5.1c-0.1,0-0.2,0-0.3,0
		c-2.5,0-5.1,0-7.6,0c-0.6,0-0.5-0.1-0.5,0.5c0,2.5,0,5.1,0,7.6c0,0.1,0,0.2,0,0.3c-1.7,0-3.4,0-5.1,0c0-2.8,0-5.6,0-8.5
		c-2.9,0-5.8,0-8.7,0c0-1.7,0-3.4,0-5.1c2.9,0,5.7,0,8.7,0c0-0.1,0-0.2,0-0.3c0-5.1,0-10.1,0-15.2c0-0.1-0.1-0.3-0.2-0.4
		c-2.4-2.4-4.8-4.9-7.2-7.4c-2.2-2.2-4.4-4.5-6.6-6.7C9.2,9.7,6.5,6.9,3.8,4.1C2.5,2.8,1.2,1.5-0.1,0.2c0,0-0.1-0.1-0.2-0.2
		C18.6,0,37.4,0,56.2,0z M28.4,22.1c5.4-5.7,10.7-11.3,16-17c-10.9,0-21.7,0-32.6,0C17.4,10.8,22.9,16.4,28.4,22.1z"/>
</g>
<circle class="st1" cx="28" cy="28" r="180"/>
</svg>
