<?xml version="1.0" encoding="utf-8"?>
<!-- Generator: Adobe Illustrator 23.0.4, SVG Export Plug-In . SVG Version: 6.00 Build 0)  -->
<svg version="1.1" id="Layer_1" xmlns="http://www.w3.org/2000/svg" xmlns:xlink="http://www.w3.org/1999/xlink" x="0px" y="0px"
	 viewBox="0 0 832.3 104.4" style="enable-background:new 0 0 832.3 104.4;" xml:space="preserve">
<style type="text/css">
	.st0{fill:#FFFFFF;}
</style>
<g id="Layer_3">
	<g>
		
			<image style="overflow:visible;opacity:0.22;enable-background:new    ;" width="3221" height="483" xlink:href="20ABC86C27255186.png"  transform="matrix(0.2397 0 0 0.2397 17.9104 -3.5226)">
		</image>
		<g>
			<path class="st0" d="M305.6,5.9L293.5,66L270.6,5.9h-0.8h-21.9h-1.1l-7.3,34.4h-33l7.3-34.4h-23l-8.7,41.5
				c0.1-1.2,0.1-2.4,0.1-3.6c0-6.4-1-12.2-2.9-17.1c-2-5-4.8-9.2-8.3-12.6c-3.6-3.4-8-6-13.1-7.7S147.1,3.9,141,3.9
				c-7.7,0-14.8,1.5-21.1,4.5c-6.2,3-11.6,7.1-15.9,12.2c-3.1,3.7-5.7,7.8-7.8,12.3l5.6-27h-23L66,67c-0.5,2-1,3.9-1.5,5.8
				c-0.5,1.7-1.1,3.2-2,4.4c-0.8,1.2-1.9,2.1-3.2,2.8c-1.3,0.7-3.1,1.1-5.3,1.1s-4.1-0.6-5.8-1.8c-1.5-1.1-2.3-2.8-2.3-5
				c0-1.3,0.2-2.8,0.5-4.6c0.4-1.8,0.8-3.7,1.2-5.6l0.4-1.9H26.9l-0.2,1.3c-0.4,2.2-0.8,4.5-1.1,6.8c-0.3,2.3-0.5,4.7-0.5,7.2
				c0,4.2,0.8,7.8,2.4,10.8s3.8,5.4,6.5,7.3c2.7,1.8,5.7,3.1,9.2,3.9c3.4,0.8,6.9,1.2,10.5,1.2c10.1,0,17.9-2.5,23.2-7.5
				c5.3-4.9,9-12,11.1-21.2l2.4-11.7C90.5,73,94.1,83.1,101.2,90c7.2,7,17.4,10.6,30.5,10.6c8.1,0,15.3-1.6,21.6-4.6
				c6.2-3.1,11.6-7.3,15.8-12.5c3.5-4.3,6.3-9.3,8.5-14.7l-6.3,29.8h22.9l8.1-38.6h33l-8.2,38.6h1.3h21.5h0.2l12.3-58.1l22.7,58.1
				h22l19.6-92.7C326.7,5.9,305.6,5.9,305.6,5.9z M113.2,59.5c0-4.1,0.6-8.4,1.7-12.7s2.8-8.2,5.1-11.7c2.2-3.4,5.2-6.3,8.7-8.4
				c3.5-2.1,7.6-3.2,12.3-3.2c3.4,0,6.3,0.6,8.6,1.7c2.3,1.1,4.2,2.7,5.6,4.6c1.5,1.9,2.5,4.2,3.2,6.8c0.7,2.7,1,5.6,1,8.6
				c0,4.1-0.6,8.3-1.8,12.6c-1.2,4.2-2.9,8.2-5.2,11.6s-5.2,6.3-8.6,8.5c-3.3,2.1-7.3,3.2-11.8,3.2c-3.3,0-6.2-0.6-8.5-1.7
				s-4.2-2.7-5.7-4.6c-1.5-2-2.6-4.3-3.4-6.8l0,0C113.6,65.3,113.2,62.5,113.2,59.5z"/>
			<polygon class="st0" points="412.3,5.9 384.8,5.9 363,34 351,5.9 326,5.9 347.6,49.6 305.4,98.6 333.2,98.6 357.7,68.1 
				371.1,98.6 396.3,98.6 373.5,51 			"/>
			<path class="st0" d="M779.1,5.9h-30.9l-37.8,34.9l7.2-34.9h-22.9l-11.9,57.3h-22.3l-0.2,1.3c-0.4,2.2-1.2,4.3-2.3,6.3
				c-1.2,2-2.6,3.8-4.3,5.3s-3.7,2.7-5.9,3.6s-4.5,1.3-7,1.3c-3.3,0-6.2-0.6-8.5-1.7s-4.2-2.7-5.7-4.6c-1.5-2-2.6-4.3-3.4-6.8
				c-0.8-2.6-1.1-5.4-1.1-8.3c0-4.1,0.6-8.4,1.7-12.7c1.1-4.3,2.8-8.2,5.1-11.7c2.2-3.4,5.2-6.3,8.7-8.4s7.6-3.2,12.3-3.2
				c4.4,0,7.8,1.2,10.5,3.8c2.6,2.5,4,6.3,4,11.3v1.6h22.8v-1.5c0.1-5.6-0.8-10.7-2.6-15s-4.5-8-7.9-11c-3.4-2.9-7.4-5.2-12-6.6
				c-4.6-1.5-9.6-2.2-14.9-2.2c-7.7,0-14.8,1.5-21.1,4.5c-6.2,3-11.6,7.1-15.9,12.2c-4.3,5.1-7.7,11.1-10,17.7
				c-2.3,6.7-3.5,13.8-3.5,21.2c0,3,0.2,5.9,0.6,8.6L589.5,5.9h-22.4l-43,73h-25.9l15.3-73h-23l-13.3,63.8c0-0.7,0.1-1.3,0.1-2
				c0-4.7-1.3-8.8-3.7-12.4c-1.6-2.4-3.8-4.2-6.3-5.6c1.1-0.4,2.1-0.9,3.1-1.5c2.2-1.3,4.1-3.1,5.7-5.1s2.8-4.3,3.6-6.9
				c0.8-2.5,1.2-5.2,1.2-7.8c0-4.5-0.7-8.2-2.2-11.2s-3.6-5.3-6.4-7c-2.7-1.6-5.9-2.8-9.7-3.4c-3.7-0.6-7.8-0.9-12.4-0.9h-38.9
				L392,98.6h49.6c4.6,0,9.1-0.7,13.4-1.9c4.3-1.3,8.1-3.2,11.4-5.8c3.4-2.6,6.1-5.8,8-9.7c0.4-0.7,0.7-1.5,1-2.2l-4.1,19.6h41.3
				h24.3h0.5l0.3-1.4l10.5-18.6h31.1l2.9,19.9H605L600.2,70c1.5,8.2,4.8,15,9.9,20c7.2,7,17.4,10.6,30.5,10.6c5,0,9.7-0.6,13.9-1.9
				c4.3-1.3,8.3-3.3,11.8-6.2c3.5-2.8,6.7-6.5,9.5-11c2.1-3.3,4-7.2,5.6-11.7l-5.9,28.7h22.9l6-29.1l11.8-10.2l20,39.3h25.7
				l-28.1-53.9L779.1,5.9z M422.4,58.7h18c1.7,0,3.5,0.1,5.2,0.2c1.6,0.2,3.2,0.5,4.5,1.2c1.3,0.6,2.3,1.4,3.1,2.6
				c0.8,1.1,1.1,2.6,1.1,4.6c0,4.3-1.2,7.5-3.8,9.6c-2.6,2.2-5.9,3.3-10.1,3.3h-22.8L422.4,58.7z M454.7,39.5
				c-2.4,1.8-5.1,2.6-8.4,2.6h-20.4l3.7-17.8h19.5c2.8,0,5.1,0.6,6.7,1.7c1.4,1,2.1,3,2.1,5.9C458,35.4,456.9,37.9,454.7,39.5z
				 M577.1,60.9h-19.5l15.9-29.4L577.1,60.9z"/>
		</g>
	</g>
</g>
<g>
	<path class="st0" d="M790.5,5.9h18.3v4.4h-6.5v14.2h-5.4V10.3h-6.4V5.9z M811,5.9h8.2l2.6,10.2l2.7-10.2h7.9v18.6h-5.1V11.4
		l-3.5,13.2h-4.2l-3.5-13.2v13.2H811V5.9z"/>
</g>
</svg>
