<?xml version="1.0" encoding="utf-8"?>
<!-- Generator: Adobe Illustrator 23.0.4, SVG Export Plug-In . SVG Version: 6.00 Build 0)  -->
<svg version="1.2" baseProfile="tiny" xmlns="http://www.w3.org/2000/svg" xmlns:xlink="http://www.w3.org/1999/xlink" x="0px"
	 y="0px" viewBox="0 0 759.6 104.4" xml:space="preserve">
<g id="Layer_2" display="none">
</g>
<g id="Layer_3">
	<g>
		
			<image opacity="0.22" width="3218" height="479" xlink:href="20ABC86C27255186.png"  transform="matrix(0.24 0 0 0.24 -4.4156 -3.1059)">
		</image>
		<g>
			<path fill="#FFFFFF" d="M283.3,5.9L271.2,66L248.3,5.9h-0.8h-21.9h-1.1l-7.3,34.4h-33l7.3-34.4h-23l-8.7,41.5
				c0.1-1.2,0.1-2.4,0.1-3.6c0-6.4-1-12.2-2.9-17.1c-2-5-4.8-9.2-8.3-12.6c-3.6-3.4-8-6-13.1-7.7c-5.1-1.7-10.8-2.5-16.9-2.5
				c-7.7,0-14.8,1.5-21.1,4.5c-6.2,3-11.6,7.1-15.9,12.2c-3.1,3.7-5.7,7.8-7.8,12.3l5.6-27h-23L43.7,67c-0.5,2-1,3.9-1.5,5.8
				c-0.5,1.7-1.1,3.2-2,4.4c-0.8,1.2-1.9,2.1-3.2,2.8c-1.3,0.7-3.1,1.1-5.3,1.1c-2.2,0-4.1-0.6-5.8-1.8c-1.5-1.1-2.3-2.8-2.3-5
				c0-1.3,0.2-2.8,0.5-4.6c0.4-1.8,0.8-3.7,1.2-5.6l0.4-1.9H4.6l-0.2,1.3C4,65.7,3.6,68,3.3,70.3c-0.3,2.3-0.5,4.7-0.5,7.2
				c0,4.2,0.8,7.8,2.4,10.8c1.6,3,3.8,5.4,6.5,7.3c2.7,1.8,5.7,3.1,9.2,3.9c3.4,0.8,6.9,1.2,10.5,1.2c10.1,0,17.9-2.5,23.2-7.5
				c5.3-4.9,9-12,11.1-21.2l2.4-11.7C68.2,73,71.8,83.1,78.9,90c7.2,7,17.4,10.6,30.5,10.6c8.1,0,15.3-1.6,21.6-4.6
				c6.2-3.1,11.6-7.3,15.8-12.5c3.5-4.3,6.3-9.3,8.5-14.7L149,98.6h22.9L180,60h33l-8.2,38.6h1.3h21.5h0.2l12.3-58.1l22.7,58.1h22
				l19.6-92.7H283.3z M90.9,59.5c0-4.1,0.6-8.4,1.7-12.7c1.1-4.3,2.8-8.2,5.1-11.7c2.2-3.4,5.2-6.3,8.7-8.4
				c3.5-2.1,7.6-3.2,12.3-3.2c3.4,0,6.3,0.6,8.6,1.7c2.3,1.1,4.2,2.7,5.6,4.6c1.5,1.9,2.5,4.2,3.2,6.8c0.7,2.7,1,5.6,1,8.6
				c0,4.1-0.6,8.3-1.8,12.6c-1.2,4.2-2.9,8.2-5.2,11.6c-2.3,3.4-5.2,6.3-8.6,8.5c-3.3,2.1-7.3,3.2-11.8,3.2c-3.3,0-6.2-0.6-8.5-1.7
				c-2.3-1.1-4.2-2.7-5.7-4.6c-1.5-2-2.6-4.3-3.4-6.8v0C91.3,65.3,90.9,62.5,90.9,59.5z"/>
			<polygon fill="#FFFFFF" points="390,5.9 362.5,5.9 340.7,34 328.7,5.9 303.7,5.9 325.3,49.6 283.1,98.6 310.9,98.6 335.4,68.1 
				348.8,98.6 374,98.6 351.2,51 			"/>
			<path fill="#FFFFFF" d="M756.8,5.9h-30.9l-37.8,34.9l7.2-34.9h-22.9l-11.9,57.3h-22.3l-0.2,1.3c-0.4,2.2-1.2,4.3-2.3,6.3
				c-1.2,2-2.6,3.8-4.3,5.3c-1.7,1.5-3.7,2.7-5.9,3.6c-2.2,0.9-4.5,1.3-7,1.3c-3.3,0-6.2-0.6-8.5-1.7c-2.3-1.1-4.2-2.7-5.7-4.6
				c-1.5-2-2.6-4.3-3.4-6.8c-0.8-2.6-1.1-5.4-1.1-8.3c0-4.1,0.6-8.4,1.7-12.7c1.1-4.3,2.8-8.2,5.1-11.7c2.2-3.4,5.2-6.3,8.7-8.4
				c3.5-2.1,7.6-3.2,12.3-3.2c4.4,0,7.8,1.2,10.5,3.8c2.6,2.5,4,6.3,4,11.3v1.6h22.8l0-1.5c0.1-5.6-0.8-10.7-2.6-15
				c-1.8-4.3-4.5-8-7.9-11c-3.4-2.9-7.4-5.2-12-6.6c-4.6-1.5-9.6-2.2-14.9-2.2c-7.7,0-14.8,1.5-21.1,4.5c-6.2,3-11.6,7.1-15.9,12.2
				c-4.3,5.1-7.7,11.1-10,17.7c-2.3,6.7-3.5,13.8-3.5,21.2c0,3,0.2,5.9,0.6,8.6L567.2,5.9h-22.4l-43,73h-25.9l15.3-73h-23
				l-13.3,63.8c0-0.7,0.1-1.3,0.1-2c0-4.7-1.3-8.8-3.7-12.4c-1.6-2.4-3.8-4.2-6.3-5.6c1.1-0.4,2.1-0.9,3.1-1.5
				c2.2-1.3,4.1-3.1,5.7-5.1c1.6-2,2.8-4.3,3.6-6.9c0.8-2.5,1.2-5.2,1.2-7.8c0-4.5-0.7-8.2-2.2-11.2c-1.5-3-3.6-5.3-6.4-7
				c-2.7-1.6-5.9-2.8-9.7-3.4c-3.7-0.6-7.8-0.9-12.4-0.9h-38.9l-19.3,92.7h49.6c4.6,0,9.1-0.7,13.4-1.9c4.3-1.3,8.1-3.2,11.4-5.8
				c3.4-2.6,6.1-5.8,8-9.7c0.4-0.7,0.7-1.5,1-2.2l-4.1,19.6h41.3h24.3h0.5l0.3-1.4l10.5-18.6H557l2.9,19.9h22.8L577.9,70
				c1.5,8.2,4.8,15,9.9,20c7.2,7,17.4,10.6,30.5,10.6c5,0,9.7-0.6,13.9-1.9c4.3-1.3,8.3-3.3,11.8-6.2c3.5-2.8,6.7-6.5,9.5-11
				c2.1-3.3,4-7.2,5.6-11.7l-5.9,28.7h22.9l6-29.1l11.8-10.2l20,39.3h25.7l-28.1-53.9L756.8,5.9z M400.1,58.7h18
				c1.7,0,3.5,0.1,5.2,0.2c1.6,0.2,3.2,0.5,4.5,1.2c1.3,0.6,2.3,1.4,3.1,2.6c0.8,1.1,1.1,2.6,1.1,4.6c0,4.3-1.2,7.5-3.8,9.6
				c-2.6,2.2-5.9,3.3-10.1,3.3h-22.8L400.1,58.7z M432.4,39.5c-2.4,1.8-5.1,2.6-8.4,2.6h-20.4l3.7-17.8h19.5c2.8,0,5.1,0.6,6.7,1.7
				c1.4,1,2.1,3,2.1,5.9C435.7,35.4,434.6,37.9,432.4,39.5z M554.8,60.9h-19.5l15.9-29.4L554.8,60.9z"/>
		</g>
	</g>
</g>
</svg>
