<?xml version="1.0" encoding="utf-8"?>
<!-- Generator: Adobe Illustrator 23.0.4, SVG Export Plug-In . SVG Version: 6.00 Build 0)  -->
<svg version="1.1" xmlns="http://www.w3.org/2000/svg" xmlns:xlink="http://www.w3.org/1999/xlink" x="0px" y="0px"
	 viewBox="0 0 792 144" style="enable-background:new 0 0 792 144;" xml:space="preserve">
<style type="text/css">
	.st0{fill:#FFFFFF;}
</style>
<g id="Layer_2">
	<rect width="792" height="144"/>
</g>
<g id="Layer_3">
	<g>
		<g>
			<path class="st0" d="M299.49,25.73L287.43,85.8l-22.94-60.08h-0.77h-21.89h-1.13l-7.27,34.36h-33.03l7.27-34.36h-23.02
				l-8.71,41.45c0.06-1.21,0.14-2.42,0.14-3.65c0-6.44-0.99-12.2-2.93-17.13c-1.96-4.96-4.76-9.19-8.34-12.6
				c-3.58-3.41-8-5.99-13.13-7.69c-5.07-1.68-10.76-2.52-16.92-2.52c-7.73,0-14.81,1.53-21.06,4.54
				c-6.23,3.01-11.59,7.13-15.94,12.25c-3.12,3.68-5.72,7.82-7.81,12.35l5.6-27.01H72.54L59.87,86.76c-0.5,1.98-1,3.92-1.49,5.78
				c-0.45,1.69-1.11,3.17-1.97,4.4c-0.82,1.17-1.9,2.13-3.22,2.84c-1.31,0.71-3.1,1.07-5.34,1.07c-2.19,0-4.09-0.6-5.79-1.83
				c-1.55-1.12-2.3-2.75-2.3-5c0-1.31,0.18-2.85,0.53-4.58c0.38-1.83,0.77-3.71,1.19-5.62l0.41-1.9H20.84l-0.23,1.29
				c-0.42,2.33-0.8,4.65-1.14,6.88c-0.34,2.29-0.52,4.71-0.52,7.19c0,4.18,0.82,7.8,2.45,10.78c1.62,2.97,3.81,5.41,6.51,7.25
				c2.66,1.82,5.75,3.14,9.19,3.93c3.36,0.78,6.9,1.17,10.51,1.17c10.06,0,17.87-2.53,23.2-7.51c5.27-4.92,8.99-12.04,11.06-21.2
				l2.44-11.75c0.11,12.87,3.73,22.92,10.79,29.85c7.17,7.04,17.43,10.61,30.5,10.61c8.06,0,15.31-1.55,21.57-4.61
				c6.24-3.05,11.56-7.27,15.83-12.52c3.51-4.32,6.32-9.29,8.46-14.74l-6.28,29.87h22.89l8.15-38.62h33.03l-8.15,38.62h1.25h21.52
				h0.24l12.29-58.12l22.74,58.12h22.03l19.6-92.67H299.49z M107.11,79.34c0-4.11,0.57-8.39,1.7-12.71
				c1.12-4.29,2.85-8.22,5.12-11.7c2.24-3.43,5.16-6.26,8.67-8.43c3.45-2.13,7.58-3.21,12.28-3.21c3.42,0,6.3,0.58,8.58,1.72
				c2.28,1.14,4.16,2.67,5.6,4.56c1.45,1.91,2.52,4.19,3.18,6.77c0.68,2.67,1.02,5.56,1.02,8.58c0,4.1-0.59,8.35-1.76,12.63
				c-1.16,4.25-2.93,8.17-5.25,11.64c-2.29,3.44-5.18,6.28-8.57,8.45c-3.32,2.12-7.3,3.2-11.82,3.2c-3.34,0-6.21-0.58-8.53-1.72
				c-2.32-1.14-4.24-2.7-5.72-4.62c-1.5-1.97-2.64-4.26-3.38-6.82v0C107.49,85.08,107.11,82.27,107.11,79.34z"/>
			<polygon class="st0" points="406.17,25.73 378.66,25.73 356.88,53.82 344.85,25.73 319.85,25.73 341.45,69.44 299.27,118.4 
				327.14,118.4 351.58,87.85 364.99,118.4 390.2,118.4 367.37,70.8 			"/>
			<path class="st0" d="M773.05,25.73h-30.93l-37.8,34.88l7.23-34.88h-22.89l-11.88,57.31h-22.26l-0.23,1.29
				c-0.39,2.16-1.17,4.26-2.32,6.26c-1.16,2.01-2.61,3.8-4.32,5.32c-1.7,1.51-3.68,2.72-5.88,3.61c-2.18,0.88-4.54,1.33-7,1.33
				c-3.34,0-6.21-0.58-8.53-1.72c-2.32-1.14-4.24-2.7-5.72-4.62c-1.5-1.97-2.64-4.26-3.38-6.82c-0.75-2.6-1.13-5.41-1.13-8.34
				c0-4.11,0.57-8.39,1.7-12.71c1.12-4.29,2.85-8.22,5.12-11.7c2.24-3.43,5.16-6.26,8.67-8.43c3.45-2.13,7.58-3.21,12.28-3.21
				c4.39,0,7.83,1.23,10.52,3.77c2.63,2.48,3.96,6.3,3.96,11.34v1.57h22.8l0.02-1.54c0.09-5.63-0.8-10.68-2.63-14.99
				c-1.84-4.34-4.49-8.03-7.88-10.98c-3.36-2.93-7.41-5.16-12.02-6.64c-4.57-1.46-9.58-2.21-14.9-2.21
				c-7.73,0-14.81,1.53-21.06,4.54c-6.23,3.01-11.59,7.13-15.94,12.25c-4.33,5.1-7.69,11.07-10,17.74
				c-2.3,6.66-3.47,13.79-3.47,21.2c0,3.04,0.22,5.9,0.6,8.62l-10.37-62.23h-22.41l-43.03,72.98h-25.87l15.3-72.98H484.4
				l-13.31,63.78c0.04-0.67,0.1-1.33,0.1-2.02c0-4.65-1.25-8.81-3.73-12.37c-1.65-2.36-3.77-4.24-6.34-5.61
				c1.1-0.41,2.14-0.91,3.12-1.5c2.2-1.35,4.11-3.06,5.69-5.08c1.57-2.02,2.78-4.34,3.58-6.88c0.8-2.52,1.2-5.15,1.2-7.81
				c0-4.48-0.73-8.24-2.17-11.16c-1.46-2.97-3.6-5.34-6.35-7.04c-2.67-1.65-5.94-2.79-9.73-3.41c-3.67-0.6-7.85-0.9-12.41-0.9
				h-38.89l-19.34,92.67h49.58c4.65,0,9.15-0.66,13.37-1.95c4.26-1.3,8.09-3.24,11.4-5.77c3.35-2.56,6.05-5.82,8.03-9.69
				c0.37-0.71,0.66-1.47,0.96-2.23l-4.1,19.64h41.32h24.35h0.48l0.29-1.36l10.51-18.57h31.21l2.88,19.94h22.77l-4.77-28.6
				c1.47,8.23,4.76,14.96,9.91,20c7.17,7.04,17.43,10.61,30.5,10.61c4.97,0,9.65-0.63,13.92-1.88c4.32-1.26,8.29-3.34,11.83-6.18
				c3.5-2.81,6.7-6.51,9.5-10.99c2.08-3.32,3.97-7.23,5.64-11.66l-5.95,28.69h22.89l6.05-29.07l11.75-10.24l19.96,39.32h25.74
				l-28.08-53.85L773.05,25.73z M416.34,78.52h18.04c1.69,0,3.46,0.08,5.25,0.24c1.65,0.15,3.16,0.55,4.49,1.17
				c1.27,0.6,2.28,1.44,3.09,2.57c0.76,1.06,1.15,2.61,1.15,4.6c0,4.32-1.23,7.45-3.77,9.58c-2.62,2.2-5.92,3.27-10.09,3.27h-22.76
				L416.34,78.52z M448.56,59.33c-2.38,1.77-5.13,2.64-8.4,2.64h-20.39l3.73-17.81h19.54c2.84,0,5.09,0.56,6.7,1.67
				c1.42,0.98,2.14,2.97,2.14,5.92C451.88,55.19,450.79,57.67,448.56,59.33z M571.05,80.65H551.5l15.93-29.37L571.05,80.65z"/>
		</g>
	</g>
</g>
</svg>
