<?xml version="1.0" encoding="utf-8"?>
<!-- Generator: Adobe Illustrator 23.0.4, SVG Export Plug-In . SVG Version: 6.00 Build 0)  -->
<svg version="1.1" xmlns="http://www.w3.org/2000/svg" xmlns:xlink="http://www.w3.org/1999/xlink" x="0px" y="0px"
	 viewBox="0 0 841 144" enable-background="new 0 0 841 144" xml:space="preserve">
<g id="Layer_2" display="none">
</g>
<g id="Layer_3">
	<g>
		<polygon points="412.1,112 429.8,27.3 392.4,70.8 		"/>
		<path d="M49,0L0,144h792L841,0H49z M780.8,118.4h-25.7l-20-39.3l-11.8,10.2l-6,29.1h-22.9l5.9-28.7c-1.7,4.4-3.6,8.3-5.6,11.7
			c-2.8,4.5-6,8.2-9.5,11c-3.5,2.8-7.5,4.9-11.8,6.2c-4.3,1.2-8.9,1.9-13.9,1.9c-13.1,0-23.3-3.6-30.5-10.6c-5.1-5-8.4-11.8-9.9-20
			l4.8,28.6h-22.8l-2.9-19.9H567L556.5,117l-0.3,1.4h-0.5h-24.3h-41.3l4.1-19.6c-0.3,0.8-0.6,1.5-1,2.2c-2,3.9-4.7,7.1-8,9.7
			c-3.3,2.5-7.1,4.5-11.4,5.8c-4.2,1.3-8.7,1.9-13.4,1.9h-45.2h-4.4H390l-13.4-30.5l-24.4,30.5h-26h-1.9h-20.1l-22.7-58.1
			l-12.3,58.1h-0.2h-21.5h-1.3l8.2-38.6h-33l-8.2,38.6h-22.9l6.3-29.9c-2.1,5.5-4.9,10.4-8.5,14.7c-4.3,5.3-9.6,9.5-15.8,12.5
			c-6.3,3.1-13.5,4.6-21.6,4.6c-13.1,0-23.3-3.6-30.5-10.6c-7.1-6.9-10.7-17-10.8-29.9l-2.4,11.7c-2.1,9.2-5.8,16.3-11.1,21.2
			c-5.3,5-13.1,7.5-23.2,7.5c-3.6,0-7.1-0.4-10.5-1.2c-3.4-0.8-6.5-2.1-9.2-3.9c-2.7-1.8-4.9-4.3-6.5-7.3c-1.6-3-2.4-6.6-2.4-10.8
			c0-2.5,0.2-4.9,0.5-7.2c0.3-2.2,0.7-4.5,1.1-6.9l0.2-1.3h21.1l-0.4,1.9c-0.4,1.9-0.8,3.8-1.2,5.6c-0.4,1.7-0.5,3.3-0.5,4.6
			c0,2.2,0.8,3.9,2.3,5c1.7,1.2,3.6,1.8,5.8,1.8c2.2,0,4-0.4,5.3-1.1c1.3-0.7,2.4-1.7,3.2-2.8c0.9-1.2,1.5-2.7,2-4.4
			c0.5-1.9,1-3.8,1.5-5.8l12.7-61h23l-5.6,27c2.1-4.5,4.7-8.7,7.8-12.3c4.3-5.1,9.7-9.2,15.9-12.2c6.2-3,13.3-4.5,21.1-4.5
			c6.2,0,11.8,0.8,16.9,2.5c5.1,1.7,9.5,4.3,13.1,7.7c3.6,3.4,6.4,7.6,8.3,12.6c1.9,4.9,2.9,10.7,2.9,17.1c0,1.2-0.1,2.4-0.1,3.6
			l8.7-41.5h23l-7.3,34.4h33l7.3-34.4h1.1h21.9h0.8l22.9,60.1l12.1-60.1h20.4h0.9h24.1l12,28.1l21.8-28.1h26.5h1H469
			c4.6,0,8.7,0.3,12.4,0.9c3.8,0.6,7.1,1.8,9.7,3.4c2.8,1.7,4.9,4.1,6.4,7c1.4,2.9,2.2,6.7,2.2,11.2c0,2.7-0.4,5.3-1.2,7.8
			c-0.8,2.5-2,4.9-3.6,6.9c-1.6,2-3.5,3.7-5.7,5.1c-1,0.6-2,1.1-3.1,1.5c2.6,1.4,4.7,3.2,6.3,5.6c2.5,3.6,3.7,7.7,3.7,12.4
			c0,0.7-0.1,1.4-0.1,2l13.3-63.8h23l-15.3,73H543l43-73h22.4L618.8,88c-0.4-2.7-0.6-5.6-0.6-8.6c0-7.4,1.2-14.5,3.5-21.2
			c2.3-6.7,5.7-12.6,10-17.7c4.3-5.1,9.7-9.2,15.9-12.2c6.2-3,13.3-4.5,21.1-4.5c5.3,0,10.3,0.7,14.9,2.2c4.6,1.5,8.7,3.7,12,6.6
			c3.4,2.9,6,6.6,7.9,11c1.8,4.3,2.7,9.4,2.6,15l0,1.5h-22.8v-1.6c0-5-1.3-8.9-4-11.3c-2.7-2.5-6.1-3.8-10.5-3.8
			c-4.7,0-8.8,1.1-12.3,3.2c-3.5,2.2-6.4,5-8.7,8.4c-2.3,3.5-4,7.4-5.1,11.7c-1.1,4.3-1.7,8.6-1.7,12.7c0,2.9,0.4,5.7,1.1,8.3
			c0.7,2.6,1.9,4.8,3.4,6.8c1.5,1.9,3.4,3.5,5.7,4.6c2.3,1.1,5.2,1.7,8.5,1.7c2.5,0,4.8-0.4,7-1.3c2.2-0.9,4.2-2.1,5.9-3.6
			c1.7-1.5,3.2-3.3,4.3-5.3c1.2-2,1.9-4.1,2.3-6.3l0.2-1.3h22.3l11.9-57.3h22.9l-7.2,34.9l37.8-34.9H798l-45.3,38.8L780.8,118.4z"/>
		<polygon points="326.8,115.5 366.5,69.4 345.5,27 		"/>
		<path d="M469.1,79.9c-1.3-0.6-2.8-1-4.5-1.2c-1.8-0.2-3.6-0.2-5.2-0.2h-18l-4.6,21.4h22.8c4.2,0,7.5-1.1,10.1-3.3
			c2.5-2.1,3.8-5.3,3.8-9.6c0-2-0.4-3.5-1.1-4.6C471.4,81.4,470.4,80.5,469.1,79.9z"/>
		<path d="M174.1,49.6c-1.4-1.9-3.3-3.4-5.6-4.6c-2.3-1.1-5.2-1.7-8.6-1.7c-4.7,0-8.8,1.1-12.3,3.2c-3.5,2.2-6.4,5-8.7,8.4
			c-2.3,3.5-4,7.4-5.1,11.7c-1.1,4.3-1.7,8.6-1.7,12.7c0,2.9,0.4,5.7,1.1,8.3v0c0.7,2.6,1.9,4.8,3.4,6.8c1.5,1.9,3.4,3.5,5.7,4.6
			c2.3,1.1,5.2,1.7,8.5,1.7c4.5,0,8.5-1.1,11.8-3.2c3.4-2.2,6.3-5,8.6-8.5c2.3-3.5,4.1-7.4,5.2-11.6c1.2-4.3,1.8-8.5,1.8-12.6
			c0-3-0.3-5.9-1-8.6C176.6,53.8,175.5,51.5,174.1,49.6z"/>
		<path d="M474.7,45.8c-1.6-1.1-3.9-1.7-6.7-1.7h-19.5L444.8,62h20.4c3.3,0,6-0.9,8.4-2.6c2.2-1.7,3.3-4.1,3.3-7.6
			C476.9,48.8,476.2,46.8,474.7,45.8z"/>
		<polygon points="576.5,80.7 596,80.7 592.4,51.3 		"/>
	</g>
	<g>
		<g>
			<path fill="#FFFFFF" d="M324,25.7l-12.1,60.1L289,25.7h-0.8h-21.9h-1.1l-7.3,34.4h-33l7.3-34.4h-23l-8.7,41.5
				c0.1-1.2,0.1-2.4,0.1-3.6c0-6.4-1-12.2-2.9-17.1c-2-5-4.8-9.2-8.3-12.6c-3.6-3.4-8-6-13.1-7.7c-5.1-1.7-10.8-2.5-16.9-2.5
				c-7.7,0-14.8,1.5-21.1,4.5c-6.2,3-11.6,7.1-15.9,12.2c-3.1,3.7-5.7,7.8-7.8,12.3l5.6-27H97l-12.7,61c-0.5,2-1,3.9-1.5,5.8
				c-0.5,1.7-1.1,3.2-2,4.4c-0.8,1.2-1.9,2.1-3.2,2.8c-1.3,0.7-3.1,1.1-5.3,1.1c-2.2,0-4.1-0.6-5.8-1.8c-1.5-1.1-2.3-2.8-2.3-5
				c0-1.3,0.2-2.8,0.5-4.6c0.4-1.8,0.8-3.7,1.2-5.6l0.4-1.9H45.3l-0.2,1.3c-0.4,2.3-0.8,4.6-1.1,6.9c-0.3,2.3-0.5,4.7-0.5,7.2
				c0,4.2,0.8,7.8,2.4,10.8c1.6,3,3.8,5.4,6.5,7.3c2.7,1.8,5.7,3.1,9.2,3.9c3.4,0.8,6.9,1.2,10.5,1.2c10.1,0,17.9-2.5,23.2-7.5
				c5.3-4.9,9-12,11.1-21.2l2.4-11.7c0.1,12.9,3.7,22.9,10.8,29.9c7.2,7,17.4,10.6,30.5,10.6c8.1,0,15.3-1.6,21.6-4.6
				c6.2-3.1,11.6-7.3,15.8-12.5c3.5-4.3,6.3-9.3,8.5-14.7l-6.3,29.9h22.9l8.2-38.6h33l-8.2,38.6h1.3h21.5h0.2l12.3-58.1l22.7,58.1
				h22l19.6-92.7H324z M131.6,79.3c0-4.1,0.6-8.4,1.7-12.7c1.1-4.3,2.8-8.2,5.1-11.7c2.2-3.4,5.2-6.3,8.7-8.4
				c3.5-2.1,7.6-3.2,12.3-3.2c3.4,0,6.3,0.6,8.6,1.7c2.3,1.1,4.2,2.7,5.6,4.6c1.5,1.9,2.5,4.2,3.2,6.8c0.7,2.7,1,5.6,1,8.6
				c0,4.1-0.6,8.3-1.8,12.6c-1.2,4.2-2.9,8.2-5.2,11.6c-2.3,3.4-5.2,6.3-8.6,8.5c-3.3,2.1-7.3,3.2-11.8,3.2c-3.3,0-6.2-0.6-8.5-1.7
				c-2.3-1.1-4.2-2.7-5.7-4.6c-1.5-2-2.6-4.3-3.4-6.8v0C132,85.1,131.6,82.3,131.6,79.3z"/>
			<polygon fill="#FFFFFF" points="430.7,25.7 403.2,25.7 381.4,53.8 369.4,25.7 344.4,25.7 366,69.4 323.8,118.4 351.6,118.4 
				376.1,87.9 389.5,118.4 414.7,118.4 391.9,70.8 			"/>
			<path fill="#FFFFFF" d="M797.5,25.7h-30.9l-37.8,34.9l7.2-34.9h-22.9L701.3,83H679l-0.2,1.3c-0.4,2.2-1.2,4.3-2.3,6.3
				c-1.2,2-2.6,3.8-4.3,5.3c-1.7,1.5-3.7,2.7-5.9,3.6c-2.2,0.9-4.5,1.3-7,1.3c-3.3,0-6.2-0.6-8.5-1.7c-2.3-1.1-4.2-2.7-5.7-4.6
				c-1.5-2-2.6-4.3-3.4-6.8c-0.8-2.6-1.1-5.4-1.1-8.3c0-4.1,0.6-8.4,1.7-12.7c1.1-4.3,2.8-8.2,5.1-11.7c2.2-3.4,5.2-6.3,8.7-8.4
				c3.5-2.1,7.6-3.2,12.3-3.2c4.4,0,7.8,1.2,10.5,3.8c2.6,2.5,4,6.3,4,11.3V60h22.8l0-1.5c0.1-5.6-0.8-10.7-2.6-15
				c-1.8-4.3-4.5-8-7.9-11c-3.4-2.9-7.4-5.2-12-6.6c-4.6-1.5-9.6-2.2-14.9-2.2c-7.7,0-14.8,1.5-21.1,4.5c-6.2,3-11.6,7.1-15.9,12.2
				c-4.3,5.1-7.7,11.1-10,17.7c-2.3,6.7-3.5,13.8-3.5,21.2c0,3,0.2,5.9,0.6,8.6l-10.4-62.2h-22.4l-43,73h-25.9l15.3-73h-23
				l-13.3,63.8c0-0.7,0.1-1.3,0.1-2c0-4.7-1.3-8.8-3.7-12.4c-1.6-2.4-3.8-4.2-6.3-5.6c1.1-0.4,2.1-0.9,3.1-1.5
				c2.2-1.3,4.1-3.1,5.7-5.1c1.6-2,2.8-4.3,3.6-6.9c0.8-2.5,1.2-5.2,1.2-7.8c0-4.5-0.7-8.2-2.2-11.2c-1.5-3-3.6-5.3-6.4-7
				c-2.7-1.6-5.9-2.8-9.7-3.4c-3.7-0.6-7.8-0.9-12.4-0.9h-38.9l-19.3,92.7h49.6c4.6,0,9.1-0.7,13.4-1.9c4.3-1.3,8.1-3.2,11.4-5.8
				c3.4-2.6,6.1-5.8,8-9.7c0.4-0.7,0.7-1.5,1-2.2l-4.1,19.6h41.3h24.3h0.5l0.3-1.4l10.5-18.6h31.2l2.9,19.9h22.8l-4.8-28.6
				c1.5,8.2,4.8,15,9.9,20c7.2,7,17.4,10.6,30.5,10.6c5,0,9.7-0.6,13.9-1.9c4.3-1.3,8.3-3.3,11.8-6.2c3.5-2.8,6.7-6.5,9.5-11
				c2.1-3.3,4-7.2,5.6-11.7l-5.9,28.7h22.9l6-29.1l11.8-10.2l20,39.3h25.7l-28.1-53.9L797.5,25.7z M440.8,78.5h18
				c1.7,0,3.5,0.1,5.2,0.2c1.6,0.2,3.2,0.5,4.5,1.2c1.3,0.6,2.3,1.4,3.1,2.6c0.8,1.1,1.1,2.6,1.1,4.6c0,4.3-1.2,7.5-3.8,9.6
				c-2.6,2.2-5.9,3.3-10.1,3.3h-22.8L440.8,78.5z M473.1,59.3c-2.4,1.8-5.1,2.6-8.4,2.6h-20.4l3.7-17.8h19.5c2.8,0,5.1,0.6,6.7,1.7
				c1.4,1,2.1,3,2.1,5.9C476.4,55.2,475.3,57.7,473.1,59.3z M595.5,80.7H576l15.9-29.4L595.5,80.7z"/>
		</g>
	</g>
</g>
</svg>
