<?xml version="1.0" encoding="utf-8"?>
<!-- Generator: Adobe Illustrator 23.0.4, SVG Export Plug-In . SVG Version: 6.00 Build 0)  -->
<svg version="1.1" id="Layer_1" xmlns="http://www.w3.org/2000/svg" xmlns:xlink="http://www.w3.org/1999/xlink" x="0px" y="0px"
	 viewBox="0 0 33.4 33.4" style="enable-background:new 0 0 33.4 33.4;" xml:space="preserve">
<style type="text/css">
	.st0{fill:#FFFFFF;}
</style>
<title>YouTube icon</title>
<g>
	
		<image style="overflow:visible;opacity:0.25;" width="43" height="36" xlink:href="78BB6BE6BB857B28.png"  transform="matrix(1 0 0 1 -3.3116 -0.3116)">
	</image>
	<g>
		<path class="st0" d="M28.2,10.9c-0.3-1-1.1-1.8-2.1-2.1c-1.9-0.5-9.4-0.5-9.4-0.5s-7.5,0-9.4,0.5c-1,0.3-1.8,1.1-2.1,2.1
			c-0.4,1.9-0.5,3.9-0.5,5.8c0,1.9,0.2,3.9,0.5,5.8c0.3,1,1.1,1.8,2.1,2.1c1.9,0.5,9.4,0.5,9.4,0.5s7.5,0,9.4-0.5
			c1-0.3,1.8-1.1,2.1-2.1c0.4-1.9,0.5-3.8,0.5-5.8C28.7,14.7,28.5,12.8,28.2,10.9z M14.3,20.3v-7.2l6.3,3.6L14.3,20.3z"/>
	</g>
</g>
</svg>
