<?xml version="1.0" encoding="utf-8"?>
<!-- Generator: Adobe Illustrator 23.0.4, SVG Export Plug-In . SVG Version: 6.00 Build 0)  -->
<svg version="1.1" id="Layer_1" xmlns="http://www.w3.org/2000/svg" xmlns:xlink="http://www.w3.org/1999/xlink" x="0px" y="0px"
	 viewBox="0 0 24 24" style="enable-background:new 0 0 24 24;" xml:space="preserve">
<style type="text/css">
	.st0{fill:#FFFFFF;}
</style>
<title>YouTube icon</title>
<path class="st0" d="M23.5,6.2c-0.28-1.01-1.07-1.81-2.09-2.09c-1.87-0.5-9.4-0.5-9.4-0.5s-7.51-0.01-9.4,0.5
	C1.6,4.4,0.81,5.19,0.53,6.2C0.17,8.12,0,10.06,0,12.01C0,13.95,0.17,15.89,0.53,17.79c0.28,1.01,1.07,1.81,2.09,2.09
	c1.87,0.5,9.4,0.5,9.4,0.5s7.51,0,9.4-0.5c1.01-0.28,1.81-1.07,2.09-2.09c0.35-1.91,0.51-3.84,0.5-5.78
	C24.01,10.06,23.84,8.12,23.5,6.2z M9.61,15.6V8.41l6.26,3.6L9.61,15.6z"/>
</svg>
